# xmcd
#
# Track frame offsets:
#  150
#  23374
#  33995
#  56326
#  73278
#  97806
#  117254
#  122435
#  149030
#  174165
#  177084
#  195776
#  212146
#  239283
#  259299
#
# Disc length: 3730 seconds
#
# Revision: 0
# Processed by: cddbd v1.5.1PL0 Copyright (c) Steve Scherf et al.
# Submitted via: Collectorz.com Music Collector 6.9
#
DISCID=c50e900f
DTITLE=Guy Clark and Joe Ely and John Hiatt and Lyle Lovett - fox theater, redwood city - 15 february 2003 - disc 2
DYEAR=2003
DGENRE=
TTITLE0=John Hiatt - icy blue heart
TTITLE1=lyle lovett - intro to my baby don't tolerate
TTITLE2=lyle lovett - my baby don't tolerate
TTITLE3=Guy Clark - homegrown tomatoes
TTITLE4=Joe Ely - my eyes got lucky
TTITLE5=John Hiatt - riding with the king
TTITLE6=lyle lovett - intro to step inside this house
TTITLE7=lyle lovett - step inside this house
TTITLE8=ain't gonna be treated this way
TTITLE9=Guy Clark - intro to dublin blues
TTITLE10=Guy Clark - dublin blues
TTITLE11=Joe Ely - i saw it in you
TTITLE12=John Hiatt - memphis in the meantime
TTITLE13=lyle lovett - road to ensenada
TTITLE14=this land is your land
EXTD=
EXTT0=
EXTT1=
EXTT2=
EXTT3=
EXTT4=
EXTT5=
EXTT6=
EXTT7=
EXTT8=
EXTT9=
EXTT10=
EXTT11=
EXTT12=
EXTT13=
EXTT14=
PLAYORDER=
